<mxfile host="app.diagrams.net" agent="Mozilla/5.0 (Windows NT 10.0; Win64; x64) AppleWebKit/537.36 (KHTML, like Gecko) Chrome/132.0.0.0 Safari/537.36 Edg/132.0.0.0" version="25.0.3">
  <diagram name="第 1 页" id="iEFYI2jjMSz1NxsyHQfz">
    <mxGraphModel>
      <root>
        <mxCell id="0" />
        <mxCell id="1" parent="0" />
        <mxCell id="2" value="Security Infrastructure" style="whiteSpace=wrap;strokeWidth=2;" vertex="1" parent="1">
          <mxGeometry x="8" y="497" width="567" height="266" as="geometry" />
        </mxCell>
        <mxCell id="3" value="Power and Thermal Management" style="whiteSpace=wrap;strokeWidth=2;" vertex="1" parent="1">
          <mxGeometry x="411" y="330" width="728" height="117" as="geometry" />
        </mxCell>
        <mxCell id="4" value="Memory Hierarchy" style="whiteSpace=wrap;strokeWidth=2;" vertex="1" parent="1">
          <mxGeometry x="599" y="663" width="810" height="99" as="geometry" />
        </mxCell>
        <mxCell id="5" value="Communication Channels" style="whiteSpace=wrap;strokeWidth=2;" vertex="1" parent="1">
          <mxGeometry x="595" y="497" width="1138" height="117" as="geometry" />
        </mxCell>
        <mxCell id="6" value="System Architecture" style="whiteSpace=wrap;strokeWidth=2;" vertex="1" parent="1">
          <mxGeometry x="1753" y="8" width="411" height="605" as="geometry" />
        </mxCell>
        <mxCell id="7" value="Chiplet 1" style="whiteSpace=wrap;strokeWidth=2;" vertex="1" parent="1">
          <mxGeometry x="1788" y="33" width="125" height="49" as="geometry" />
        </mxCell>
        <mxCell id="8" value="Chiplet 2" style="whiteSpace=wrap;strokeWidth=2;" vertex="1" parent="1">
          <mxGeometry x="1896" y="132" width="125" height="49" as="geometry" />
        </mxCell>
        <mxCell id="9" value="Chiplet 3" style="whiteSpace=wrap;strokeWidth=2;" vertex="1" parent="1">
          <mxGeometry x="1946" y="231" width="125" height="49" as="geometry" />
        </mxCell>
        <mxCell id="10" value="Chiplet 4" style="whiteSpace=wrap;strokeWidth=2;" vertex="1" parent="1">
          <mxGeometry x="1994" y="364" width="125" height="49" as="geometry" />
        </mxCell>
        <mxCell id="11" value="Chiplet 5" style="whiteSpace=wrap;strokeWidth=2;" vertex="1" parent="1">
          <mxGeometry x="2005" y="530" width="125" height="49" as="geometry" />
        </mxCell>
        <mxCell id="12" value="Inter-Chiplet Communication" style="whiteSpace=wrap;strokeWidth=2;" vertex="1" parent="1">
          <mxGeometry x="630" y="522" width="172" height="67" as="geometry" />
        </mxCell>
        <mxCell id="13" value="On-Chiplet Communication" style="whiteSpace=wrap;strokeWidth=2;" vertex="1" parent="1">
          <mxGeometry x="852" y="530" width="253" height="49" as="geometry" />
        </mxCell>
        <mxCell id="14" value="Off-Chiplet Communication" style="whiteSpace=wrap;strokeWidth=2;" vertex="1" parent="1">
          <mxGeometry x="1155" y="530" width="256" height="49" as="geometry" />
        </mxCell>
        <mxCell id="15" value="Wireless Communication" style="whiteSpace=wrap;strokeWidth=2;" vertex="1" parent="1">
          <mxGeometry x="1462" y="530" width="237" height="49" as="geometry" />
        </mxCell>
        <mxCell id="16" value="Cache-on-Chip" style="whiteSpace=wrap;strokeWidth=2;" vertex="1" parent="1">
          <mxGeometry x="669" y="688" width="164" height="49" as="geometry" />
        </mxCell>
        <mxCell id="17" value="External Memory" style="whiteSpace=wrap;strokeWidth=2;" vertex="1" parent="1">
          <mxGeometry x="1192" y="688" width="182" height="49" as="geometry" />
        </mxCell>
        <mxCell id="18" value="Dynamic Voltage and Frequency Scaling" style="whiteSpace=wrap;strokeWidth=2;" vertex="1" parent="1">
          <mxGeometry x="446" y="355" width="210" height="67" as="geometry" />
        </mxCell>
        <mxCell id="19" value="Thermal Sensors" style="whiteSpace=wrap;strokeWidth=2;" vertex="1" parent="1">
          <mxGeometry x="705" y="364" width="179" height="49" as="geometry" />
        </mxCell>
        <mxCell id="20" value="Heat Spreaders" style="whiteSpace=wrap;strokeWidth=2;" vertex="1" parent="1">
          <mxGeometry x="934" y="364" width="170" height="49" as="geometry" />
        </mxCell>
        <mxCell id="21" value="Hardware Security Module" style="whiteSpace=wrap;strokeWidth=2;" vertex="1" parent="1">
          <mxGeometry x="43" y="530" width="248" height="49" as="geometry" />
        </mxCell>
        <mxCell id="22" value="Secure Boot Mechanism" style="whiteSpace=wrap;strokeWidth=2;" vertex="1" parent="1">
          <mxGeometry x="312" y="688" width="228" height="49" as="geometry" />
        </mxCell>
        <mxCell id="23" value="Encryption Engine" style="whiteSpace=wrap;strokeWidth=2;" vertex="1" parent="1">
          <mxGeometry x="73" y="688" width="189" height="49" as="geometry" />
        </mxCell>
        <mxCell id="24" value="" style="curved=1;startArrow=none;endArrow=block;exitX=0.93;exitY=1;entryX=0.5;entryY=0;" edge="1" parent="1" source="7" target="8">
          <mxGeometry relative="1" as="geometry">
            <Array as="points">
              <mxPoint x="1958" y="107" />
            </Array>
          </mxGeometry>
        </mxCell>
        <mxCell id="25" value="" style="curved=1;startArrow=none;endArrow=block;exitX=0.7;exitY=1;entryX=0.5;entryY=0;" edge="1" parent="1" source="8" target="9">
          <mxGeometry relative="1" as="geometry">
            <Array as="points">
              <mxPoint x="2008" y="206" />
            </Array>
          </mxGeometry>
        </mxCell>
        <mxCell id="26" value="" style="curved=1;startArrow=none;endArrow=block;exitX=0.69;exitY=1;entryX=0.5;entryY=0;" edge="1" parent="1" source="9" target="10">
          <mxGeometry relative="1" as="geometry">
            <Array as="points">
              <mxPoint x="2057" y="305" />
            </Array>
          </mxGeometry>
        </mxCell>
        <mxCell id="27" value="" style="curved=1;startArrow=none;endArrow=block;exitX=0.54;exitY=1;entryX=0.5;entryY=0.01;" edge="1" parent="1" source="10" target="11">
          <mxGeometry relative="1" as="geometry">
            <Array as="points">
              <mxPoint x="2067" y="447" />
            </Array>
          </mxGeometry>
        </mxCell>
        <mxCell id="28" value="" style="curved=1;startArrow=none;endArrow=block;exitX=0.39;exitY=1;entryX=1;entryY=0.42;" edge="1" parent="1" source="7" target="12">
          <mxGeometry relative="1" as="geometry">
            <Array as="points">
              <mxPoint x="1822" y="107" />
              <mxPoint x="1822" y="497" />
            </Array>
          </mxGeometry>
        </mxCell>
        <mxCell id="29" value="" style="curved=1;startArrow=none;endArrow=block;exitX=0.23;exitY=1;entryX=1;entryY=0.34;" edge="1" parent="1" source="8" target="13">
          <mxGeometry relative="1" as="geometry">
            <Array as="points">
              <mxPoint x="1891" y="206" />
              <mxPoint x="1891" y="497" />
            </Array>
          </mxGeometry>
        </mxCell>
        <mxCell id="30" value="" style="curved=1;startArrow=none;endArrow=block;exitX=0.3;exitY=1;entryX=1;entryY=0.28;" edge="1" parent="1" source="9" target="14">
          <mxGeometry relative="1" as="geometry">
            <Array as="points">
              <mxPoint x="1959" y="305" />
              <mxPoint x="1959" y="497" />
            </Array>
          </mxGeometry>
        </mxCell>
        <mxCell id="31" value="" style="curved=1;startArrow=none;endArrow=block;exitX=0.47;exitY=1;entryX=1;entryY=0.21;" edge="1" parent="1" source="10" target="15">
          <mxGeometry relative="1" as="geometry">
            <Array as="points">
              <mxPoint x="2047" y="447" />
              <mxPoint x="2047" y="497" />
            </Array>
          </mxGeometry>
        </mxCell>
        <mxCell id="32" value="" style="curved=1;startArrow=none;endArrow=block;exitX=0.5;exitY=0.99;entryX=0.39;entryY=0;" edge="1" parent="1" source="12" target="16">
          <mxGeometry relative="1" as="geometry">
            <Array as="points">
              <mxPoint x="716" y="663" />
            </Array>
          </mxGeometry>
        </mxCell>
        <mxCell id="33" value="" style="curved=1;startArrow=none;endArrow=block;exitX=0.5;exitY=1.01;entryX=1;entryY=0.14;" edge="1" parent="1" source="13" target="16">
          <mxGeometry relative="1" as="geometry">
            <Array as="points">
              <mxPoint x="978" y="663" />
            </Array>
          </mxGeometry>
        </mxCell>
        <mxCell id="34" value="" style="curved=1;startArrow=none;endArrow=block;exitX=0.5;exitY=1.01;entryX=0.5;entryY=0;" edge="1" parent="1" source="14" target="17">
          <mxGeometry relative="1" as="geometry">
            <Array as="points" />
          </mxGeometry>
        </mxCell>
        <mxCell id="35" value="" style="curved=1;startArrow=none;endArrow=block;exitX=0.31;exitY=1;entryX=1;entryY=0.42;" edge="1" parent="1" source="7" target="18">
          <mxGeometry relative="1" as="geometry">
            <Array as="points">
              <mxPoint x="1802" y="107" />
              <mxPoint x="1802" y="330" />
            </Array>
          </mxGeometry>
        </mxCell>
        <mxCell id="36" value="" style="curved=1;startArrow=none;endArrow=block;exitX=0.15;exitY=1;entryX=1;entryY=0.4;" edge="1" parent="1" source="8" target="19">
          <mxGeometry relative="1" as="geometry">
            <Array as="points">
              <mxPoint x="1871" y="206" />
              <mxPoint x="1871" y="330" />
            </Array>
          </mxGeometry>
        </mxCell>
        <mxCell id="37" value="" style="curved=1;startArrow=none;endArrow=block;exitX=0.23;exitY=1;entryX=1;entryY=0.39;" edge="1" parent="1" source="9" target="20">
          <mxGeometry relative="1" as="geometry">
            <Array as="points">
              <mxPoint x="1939" y="305" />
              <mxPoint x="1939" y="330" />
            </Array>
          </mxGeometry>
        </mxCell>
        <mxCell id="38" value="" style="curved=1;startArrow=none;endArrow=block;exitX=0.34;exitY=1;entryX=1;entryY=0.43;" edge="1" parent="1" source="10" target="21">
          <mxGeometry relative="1" as="geometry">
            <Array as="points">
              <mxPoint x="2008" y="447" />
              <mxPoint x="2008" y="497" />
            </Array>
          </mxGeometry>
        </mxCell>
        <mxCell id="39" value="" style="curved=1;startArrow=none;endArrow=block;exitX=0.5;exitY=1.01;entryX=0.5;entryY=0;" edge="1" parent="1" source="11" target="22">
          <mxGeometry relative="1" as="geometry">
            <Array as="points">
              <mxPoint x="2067" y="613" />
              <mxPoint x="426" y="638" />
            </Array>
          </mxGeometry>
        </mxCell>
        <mxCell id="40" value="" style="curved=1;startArrow=none;endArrow=block;exitX=0.5;exitY=1.01;entryX=0.5;entryY=0;" edge="1" parent="1" source="21" target="23">
          <mxGeometry relative="1" as="geometry">
            <Array as="points" />
          </mxGeometry>
        </mxCell>
      </root>
    </mxGraphModel>
  </diagram>
</mxfile>
